<svg id="phone_1_" data-name="phone (1)" xmlns="http://www.w3.org/2000/svg" width="53.834" height="53.831" viewBox="0 0 53.834 53.831">
  <g id="Group_1105" data-name="Group 1105" transform="translate(0 0)">
    <g id="Group_1104" data-name="Group 1104" transform="translate(0 0)">
      <path id="Path_1943" data-name="Path 1943" d="M53.422,42.546l-10.9-7.267a3.18,3.18,0,0,0-4.259.692l-3.174,4.081a1.357,1.357,0,0,1-1.739.366l-.6-.333c-2-1.091-4.492-2.449-9.509-7.468s-6.378-7.512-7.469-9.509l-.331-.6a1.358,1.358,0,0,1,.359-1.746l4.078-3.173a3.182,3.182,0,0,0,.693-4.259L13.3,2.43a3.164,3.164,0,0,0-4.265-.96L4.482,4.208a6.427,6.427,0,0,0-2.931,3.8c-1.641,5.978-.406,16.3,14.792,31.5C28.434,51.6,37.435,54.848,43.621,54.848a15.894,15.894,0,0,0,4.216-.551,6.421,6.421,0,0,0,3.8-2.931l2.74-4.554A3.164,3.164,0,0,0,53.422,42.546Zm-.587,3.346L50.1,50.449a4.636,4.636,0,0,1-2.736,2.121c-5.519,1.515-15.161.26-29.753-14.331S1.767,14.006,3.282,8.486a4.644,4.644,0,0,1,2.123-2.74L9.962,3.013a1.373,1.373,0,0,1,1.851.416L15.76,9.355l3.313,4.969a1.381,1.381,0,0,1-.3,1.848l-4.079,3.173a3.14,3.14,0,0,0-.832,4.03l.324.589c1.147,2.1,2.572,4.719,7.776,9.922s7.819,6.629,9.921,7.775l.589.325a3.14,3.14,0,0,0,4.03-.832l3.173-4.079a1.382,1.382,0,0,1,1.848-.3l10.9,7.267A1.372,1.372,0,0,1,52.835,45.893Z" transform="translate(-1 -1.018)" fill="#b6a27f"/>
      <path id="Path_1944" data-name="Path 1944" d="M283.525,71.118a15.268,15.268,0,0,1,15.251,15.251.9.9,0,1,0,1.794,0,17.064,17.064,0,0,0-17.045-17.045.9.9,0,1,0,0,1.794Z" transform="translate(-253.021 -62.143)" fill="#b6a27f"/>
      <path id="Path_1945" data-name="Path 1945" d="M283.525,122.318a9.88,9.88,0,0,1,9.868,9.868.9.9,0,1,0,1.794,0,11.676,11.676,0,0,0-11.662-11.662.9.9,0,1,0,0,1.794Z" transform="translate(-253.021 -107.96)" fill="#b6a27f"/>
      <path id="Path_1946" data-name="Path 1946" d="M283.525,173.518A4.491,4.491,0,0,1,288.011,178a.9.9,0,1,0,1.794,0,6.287,6.287,0,0,0-6.28-6.28.9.9,0,0,0,0,1.794Z" transform="translate(-253.021 -153.778)" fill="#b6a27f"/>
    </g>
  </g>
</svg>
