<svg id="mail_1_" data-name="mail (1)" xmlns="http://www.w3.org/2000/svg" width="52.666" height="40.377" viewBox="0 0 52.666 40.377">
  <g id="Group_1103" data-name="Group 1103" transform="translate(0 0)">
    <g id="Group_1102" data-name="Group 1102" transform="translate(0 0)">
      <path id="Path_1939" data-name="Path 1939" d="M50.033,59.733H2.633A2.633,2.633,0,0,0,0,62.366V97.477a2.633,2.633,0,0,0,2.633,2.633h47.4a2.633,2.633,0,0,0,2.633-2.633V62.366A2.633,2.633,0,0,0,50.033,59.733Zm.878,37.744a.878.878,0,0,1-.878.878H2.633a.878.878,0,0,1-.878-.878V62.366a.878.878,0,0,1,.878-.878h47.4a.878.878,0,0,1,.878.878Z" transform="translate(0 -59.733)" fill="#b6a27f"/>
      <path id="Path_1940" data-name="Path 1940" d="M78.976,93.868a.877.877,0,0,0-.641.2l-20.25,17.011a1.756,1.756,0,0,1-2.259,0L35.575,94.071a.878.878,0,0,0-1.129,1.345l20.25,17.01a3.507,3.507,0,0,0,4.517,0l20.25-17.01a.878.878,0,0,0-.488-1.547Z" transform="translate(-30.622 -90.354)" fill="#b6a27f"/>
      <path id="Path_1941" data-name="Path 1941" d="M47.385,272.946a.878.878,0,0,0-.846.273L34.25,286.385a.878.878,0,1,0,1.283,1.2l12.289-13.167a.878.878,0,0,0-.437-1.47Z" transform="translate(-30.503 -250.995)" fill="#b6a27f"/>
      <path id="Path_1942" data-name="Path 1942" d="M342.734,273.219a.878.878,0,1,0-1.283,1.2l12.289,13.167a.878.878,0,0,0,1.283-1.2Z" transform="translate(-306.104 -250.995)" fill="#b6a27f"/>
    </g>
  </g>
</svg>
