<svg id="pin" xmlns="http://www.w3.org/2000/svg" width="55.591" height="56.594" viewBox="0 0 55.591 56.594">
  <path id="Path_1947" data-name="Path 1947" d="M30.738,320.123H84.853a.738.738,0,0,0,.7-.958l-6.8-21.8a.738.738,0,0,0-.7-.518H60.467a.738.738,0,0,0,0,1.476h6.117l1.131,7.064a.738.738,0,0,0,.729.621H79.906l1.663,5.328h-23.8a.738.738,0,0,0-.738.738v6.57H49.319l.615-10.875a.738.738,0,0,0-.737-.78H35.744l2.956-8.667H55.016a.738.738,0,1,0,0-1.476H38.172a.738.738,0,0,0-.7.5l-7.434,21.8a.738.738,0,0,0,.7.976Zm38.335-15.587-.994-6.21h9.427l1.938,6.21Zm-10.562,8.28H82.029l1.82,5.832H58.511Zm-23.27-4.347H48.415l-.575,10.179H31.769Z" transform="translate(-30 -263.529)" fill="#b6a27f"/>
  <path id="Path_1948" data-name="Path 1948" d="M170.738,48.059h9.1V68.967a.738.738,0,0,0,1.476,0V48.059h9.1a.738.738,0,0,0,.738-.738V44.148a4.921,4.921,0,0,0-1.451-3.5l-2.484-2.484V33.3h1.722a.738.738,0,0,0,.738-.738V30.874a4.959,4.959,0,0,0-4.953-4.953h-8.3a4.959,4.959,0,0,0-4.953,4.953v1.688a.738.738,0,0,0,.738.738h1.722v4.86l-2.484,2.484a4.921,4.921,0,0,0-1.451,3.5v3.173A.738.738,0,0,0,170.738,48.059Zm.738-3.911a3.455,3.455,0,0,1,1.018-2.459l2.7-2.7a.738.738,0,0,0,.216-.522v-5.9a.738.738,0,0,0-.738-.738h-1.722v-.95a3.481,3.481,0,0,1,3.477-3.477h8.3a3.481,3.481,0,0,1,3.477,3.477v.95H186.48a.738.738,0,0,0-.738.738v5.9a.738.738,0,0,0,.216.522l2.7,2.7a3.455,3.455,0,0,1,1.018,2.459v2.435h-18.2Z" transform="translate(-152.781 -25.921)" fill="#b6a27f"/>
</svg>
