<svg id="pinterest" xmlns="http://www.w3.org/2000/svg" width="30.432" height="30.431" viewBox="0 0 30.432 30.431">
  <g id="Group_1087" data-name="Group 1087" transform="translate(0 0)">
    <path id="Path_1923" data-name="Path 1923" d="M22.854,2.051A14.883,14.883,0,0,0,15.216.01,14.883,14.883,0,0,0,7.578,2.051,15.151,15.151,0,0,0,2.041,7.588,14.885,14.885,0,0,0,0,15.226a14.748,14.748,0,0,0,2.516,8.38,15.161,15.161,0,0,0,6.6,5.567,13.1,13.1,0,0,1,.258-3.507l1.961-8.282a5.285,5.285,0,0,1-.5-2.417,4.537,4.537,0,0,1,.852-2.813,2.532,2.532,0,0,1,2.08-1.13,1.858,1.858,0,0,1,1.526.654,2.511,2.511,0,0,1,.535,1.644,6.169,6.169,0,0,1-.228,1.5q-.228.882-.594,2.041t-.525,1.852a2.247,2.247,0,0,0,.456,2.07,2.422,2.422,0,0,0,1.942.862,3.985,3.985,0,0,0,3.477-2.357,11.3,11.3,0,0,0,1.357-5.726,5.618,5.618,0,0,0-1.674-4.22,6.422,6.422,0,0,0-4.666-1.625,7.213,7.213,0,0,0-7.489,7.291A4.508,4.508,0,0,0,8.9,18a.9.9,0,0,1,.218.852q-.04.119-.159.594c-.079.317-.132.522-.159.614q-.159.634-.753.4a4.47,4.47,0,0,1-2.318-2.2,7.92,7.92,0,0,1-.792-3.625,8.647,8.647,0,0,1,.426-2.655A9.053,9.053,0,0,1,6.687,9.41a10.433,10.433,0,0,1,2.16-2.189A10.146,10.146,0,0,1,11.908,5.7a12.732,12.732,0,0,1,3.883-.574,10.2,10.2,0,0,1,5.052,1.248A8.923,8.923,0,0,1,24.261,9.6a8.155,8.155,0,0,1,1.179,4.24,13.331,13.331,0,0,1-1.03,5.35A8.786,8.786,0,0,1,21.5,22.923a7.137,7.137,0,0,1-4.28,1.357,4.694,4.694,0,0,1-2.259-.565,3.3,3.3,0,0,1-1.446-1.337q-.891,3.506-1.07,4.18A12.2,12.2,0,0,1,10.9,29.807,15.215,15.215,0,0,0,22.854,28.4a15.152,15.152,0,0,0,5.538-5.538,14.886,14.886,0,0,0,2.041-7.638,14.887,14.887,0,0,0-2.041-7.638A15.158,15.158,0,0,0,22.854,2.051Z" transform="translate(0 -0.01)" fill="#b6a27f"/>
  </g>
</svg>
