<svg xmlns="http://www.w3.org/2000/svg" width="15.27" height="26.904" viewBox="0 0 15.27 26.904">
  <path id="facebook" d="M11.37,6.659c.037-.041.209-.177.883-.177h2.212a1.306,1.306,0,0,0,1.3-1.305V1.31a1.307,1.307,0,0,0-1.3-1.305L11.181,0A6.762,6.762,0,0,0,6.2,1.934,7.1,7.1,0,0,0,4.318,7.021V9.106H1.8A1.306,1.306,0,0,0,.5,10.411v4.164A1.306,1.306,0,0,0,1.8,15.88H4.318V25.6A1.306,1.306,0,0,0,5.623,26.9H9.932A1.306,1.306,0,0,0,11.237,25.6V15.88h3.073a1.306,1.306,0,0,0,1.3-1.3l0-4.164a1.309,1.309,0,0,0-.671-1.141,1.326,1.326,0,0,0-.646-.164H11.237V7.459c0-.537.072-.731.133-.8Zm0,0" transform="translate(-0.5 0)" fill="#b6a27f"/>
</svg>
