<svg xmlns="http://www.w3.org/2000/svg" width="26.904" height="22.019" viewBox="0 0 26.904 22.019">
  <path id="twitter" d="M10.037,22.019a23.085,23.085,0,0,1-3.566-.283,16.734,16.734,0,0,1-4.877-1.775L0,19.09l1.726-.568c1.887-.62,3.034-1.005,4.455-1.608a5.926,5.926,0,0,1-3.046-3.53l-.4-1.219.329.05a5.987,5.987,0,0,1-.75-.924,5.676,5.676,0,0,1-.963-3.374l.076-1.064.637.247a5.954,5.954,0,0,1-.577-1.617A6.154,6.154,0,0,1,2.141,1.34L2.7.321l.742.891a13.656,13.656,0,0,0,8.847,4.981,5.291,5.291,0,0,1,.321-2.811A5.264,5.264,0,0,1,14.745.929a6.427,6.427,0,0,1,3.73-.916,5.958,5.958,0,0,1,3.662,1.51,12.3,12.3,0,0,0,1.341-.447c.294-.111.627-.236,1.044-.38L26.06.166l-1,2.863c.066-.006.134-.01.205-.013L26.9,2.941l-.97,1.326c-.056.076-.07.1-.089.127-.078.118-.175.264-1.507,2.042a2.508,2.508,0,0,0-.469,1.633,15.447,15.447,0,0,1-.843,6.213,10.994,10.994,0,0,1-2.951,4.372A13.035,13.035,0,0,1,13.9,21.641a19.021,19.021,0,0,1-3.859.378Zm0,0" transform="translate(0 0)" fill="#b6a27f"/>
</svg>
