<svg id="event" xmlns="http://www.w3.org/2000/svg" width="18.501" height="19.191" viewBox="0 0 18.501 19.191">
  <g id="Group_1091" data-name="Group 1091" transform="translate(0)">
    <g id="Group_1090" data-name="Group 1090" transform="translate(0)">
      <path id="Path_1924" data-name="Path 1924" d="M24.663,2.082q-.059,0-.118,0h-1.48V.809A.9.9,0,0,0,22.072,0H20.707a.8.8,0,0,0-.879.809V2.081H14.279V.809A.8.8,0,0,0,13.4,0H12.037a.9.9,0,0,0-.994.809V2.081H9.563A1.711,1.711,0,0,0,7.8,3.744q0,.059,0,.118V17.226a1.882,1.882,0,0,0,1.757,1.965H24.546A1.882,1.882,0,0,0,26.3,17.226V3.861A1.711,1.711,0,0,0,24.663,2.082ZM20.707.925h1.434V3.468H20.707Zm-8.671,0h1.318V3.468H12.037Zm13.341,16.3a.961.961,0,0,1-.832,1.04H9.563a.961.961,0,0,1-.832-1.04V7.4H25.378Zm0-13.364V6.474H8.73V3.861a.786.786,0,0,1,.832-.855h1.48v.509a.952.952,0,0,0,.994.879H13.4a.856.856,0,0,0,.879-.832q0-.023,0-.047V3.006h5.549v.509a.856.856,0,0,0,.832.879h1.411a.952.952,0,0,0,.994-.879V3.006h1.48a.786.786,0,0,1,.832.856Z" transform="translate(-7.804)" fill="#fff"/>
    </g>
  </g>
</svg>
