<svg xmlns="http://www.w3.org/2000/svg" width="101" height="96.903" viewBox="0 0 101 96.903">
  <g id="Group_1170" data-name="Group 1170" transform="translate(-74 -4828.037)">
    <g id="Group_1148" data-name="Group 1148" transform="translate(8284 8375)">
      <g id="Group_1120" data-name="Group 1120" transform="translate(-8210 -3465.496)">
        <path id="Path_9342" data-name="Path 9342" d="M-55.758-106.561a1.3,1.3,0,0,0-.374-.394,1.665,1.665,0,0,0-.566-.242,3.627,3.627,0,0,0-.838-.081h-2.586v5.394h2.707a1.85,1.85,0,0,0,.788-.151,2.147,2.147,0,0,0,.525-.333,2.646,2.646,0,0,0,.384-.485q-.041.3-.061.566-.02.222-.03.444t-.01.343q0,.121.01.364t.03.465q.02.262.061.566-.182-.3-.313-.5a1.079,1.079,0,0,0-.3-.3,1.217,1.217,0,0,0-.434-.162,3.763,3.763,0,0,0-.687-.051h-2.667V-95.8a2,2,0,0,0,.343,1.263,3.844,3.844,0,0,0,.99.838l-.97-.04q-.4-.02-.788-.03t-.566-.01q-.283,0-.657.01t-.717.03l-.808.04a2,2,0,0,0,.768-.717,2.589,2.589,0,0,0,.3-1.384v-10.1q0-.445-.02-.768a2.618,2.618,0,0,0-.091-.566,1.249,1.249,0,0,0-.2-.414,2.176,2.176,0,0,0-.354-.354l.707.041q.283.02.566.03t.444.01q.626,0,1.394-.01t1.465-.03q.7-.021,1.232-.031t.7-.01a.612.612,0,0,1,.545.273,1.865,1.865,0,0,1,.263.657,3.535,3.535,0,0,1,.081.546q.02.283.02.505a5.561,5.561,0,0,0-.283-.535" transform="translate(63.294 108.006)" fill="#b6a27f"/>
      </g>
      <g id="Group_1121" data-name="Group 1121" transform="translate(-8199.453 -3465.516)">
        <path id="Path_9343" data-name="Path 9343" d="M-51.2-98.332a3.152,3.152,0,0,0-.616-1.091,2.316,2.316,0,0,0-.869-.616,2.666,2.666,0,0,0-.99-.192q-.2,0-.6.02a3.058,3.058,0,0,0-.677.1v6.344h1.212a2.935,2.935,0,0,0,1.02-.182,2.638,2.638,0,0,0,.889-.546,2.587,2.587,0,0,0,.626-.919,3.362,3.362,0,0,0,.232-1.3,4.941,4.941,0,0,0-.232-1.617m6.516,12h-.263a11.658,11.658,0,0,1-1.283-.071,6.9,6.9,0,0,1-1.263-.263,5.209,5.209,0,0,1-1.2-.546,4.879,4.879,0,0,1-1.081-.919,11.443,11.443,0,0,1-.859-1.121q-.5-.717-.99-1.485t-.909-1.445q-.414-.677-.616-.98h-1.8v4.586a2.586,2.586,0,0,0,.273,1.344,2.409,2.409,0,0,0,.8.758l-.667-.04q-.283-.02-.657-.03t-.737-.01q-.647,0-1.152.02t-1.03.061a2.434,2.434,0,0,0,.768-.737,2.482,2.482,0,0,0,.3-1.364v-10.1q0-.445-.02-.768a2.609,2.609,0,0,0-.091-.566,1.251,1.251,0,0,0-.2-.414,2.184,2.184,0,0,0-.354-.354q.343.04.828.061t.95.02q.162,0,.485-.02t.7-.03q.374-.01.768-.03t.717-.02a4.9,4.9,0,0,1,1.576.253,4.028,4.028,0,0,1,1.313.727,3.515,3.515,0,0,1,.9,1.152,3.361,3.361,0,0,1,.333,1.505,3.422,3.422,0,0,1-.263,1.374,4.634,4.634,0,0,1-.616,1.051,3.574,3.574,0,0,1-.727.707,5.031,5.031,0,0,1-.576.364q.262.4.707,1.081t.98,1.475q.535.8,1.172,1.626a17.206,17.206,0,0,0,1.293,1.505,8.932,8.932,0,0,0,1.313,1.132,2.557,2.557,0,0,0,1.283.495.227.227,0,0,1-.1.02" transform="translate(58.118 100.797)" fill="#b6a27f"/>
      </g>
      <g id="Group_1122" data-name="Group 1122" transform="translate(-8184.3 -3465.94)">
        <path id="Path_9344" data-name="Path 9344" d="M-78.031-28.357l-3.273-6.95-3.293,6.95Zm-6.95.788-.444.949a10.458,10.458,0,0,0-.434,1.1,2.8,2.8,0,0,0-.152.838.8.8,0,0,0,.222.535,2.743,2.743,0,0,0,.384.374q-.343-.04-.768-.061t-.727-.02q-.3,0-.606.01t-.546.03l-.525.04a5.6,5.6,0,0,0,.98-.768,4.1,4.1,0,0,0,.8-1.152l6.162-12.83,6.122,12.83a3.848,3.848,0,0,0,.748,1.131,4.5,4.5,0,0,0,1.131.788l-1.01-.04q-.424-.02-.869-.03t-.768-.01q-.223,0-.535.01t-.616.03l-.748.04q.141-.121.263-.242a1.31,1.31,0,0,0,.192-.253.6.6,0,0,0,.091-.313,5.634,5.634,0,0,0-.04-.636,2.975,2.975,0,0,0-.3-.9l-.687-1.455Z" transform="translate(88.578 38.519)" fill="#b6a27f"/>
      </g>
      <g id="Group_1123" data-name="Group 1123" transform="translate(-8166.15 -3465.496)">
        <path id="Path_9345" data-name="Path 9345" d="M-96.494-122.808a5.393,5.393,0,0,0-.131,1.374V-108.1l-10.708-12.607v9.375a2.569,2.569,0,0,0,.283,1.354,2.115,2.115,0,0,0,.99.747l-.647-.04q-.283-.02-.6-.03t-.576-.01q-.384,0-.758.01t-.9.071a2.4,2.4,0,0,0,.8-.758,2.586,2.586,0,0,0,.273-1.344v-10.1q0-.445-.03-.768a2.053,2.053,0,0,0-.121-.556,1.273,1.273,0,0,0-.263-.414,2.238,2.238,0,0,0-.475-.364c.121.014.263.027.424.041s.323.023.525.03.438.01.707.01.5,0,.737-.01.448-.017.636-.03l.626-.041a1.192,1.192,0,0,0-.323.354,1.31,1.31,0,0,0-.04.394,1.113,1.113,0,0,0,.081.434,1.725,1.725,0,0,0,.253.4q.172.212.434.495t.626.707l6.91,8.183v-8.869q0-.445-.02-.768a3.155,3.155,0,0,0-.081-.566,1.119,1.119,0,0,0-.192-.414,2.194,2.194,0,0,0-.354-.354l.444.041q.2.02.414.03t.394.01q.182,0,.4-.01t.444-.03c.148-.014.31-.027.485-.041a1.17,1.17,0,0,0-.677.727" transform="translate(109.535 123.535)" fill="#b6a27f"/>
      </g>
      <g id="Group_1124" data-name="Group 1124" transform="translate(-8149.893 -3465.819)">
        <path id="Path_9346" data-name="Path 9346" d="M-95.971-9.071q-.121.7-.263,1.222-.041.162-.091.323a2.226,2.226,0,0,1-.131.323l-.384.141a1.255,1.255,0,0,0-.283.081,6.952,6.952,0,0,1-1.091.283,11.413,11.413,0,0,1-2.263.182,11.215,11.215,0,0,1-4.01-.626A7.169,7.169,0,0,1-107.1-8.788a5.929,5.929,0,0,1-1.414-2.344,8.847,8.847,0,0,1-.424-2.718,7.887,7.887,0,0,1,.677-3.394,7.113,7.113,0,0,1,1.758-2.374,7.145,7.145,0,0,1,2.435-1.394,8.461,8.461,0,0,1,2.707-.454q.606,0,1.152.05a10.622,10.622,0,0,1,1.061.152q.515.1,1.04.242t1.111.3l.182.071.182.071.2.081v.323q0,.141.01.283t.01.263q0,.162-.071.839t-.232,1.646q-.162-.646-.323-1.192a9.5,9.5,0,0,0-.323-.9,1.4,1.4,0,0,0-.344-.556,7.006,7.006,0,0,0-.606-.353,5.967,5.967,0,0,0-.828-.354,6.921,6.921,0,0,0-1.01-.262,6.078,6.078,0,0,0-1.111-.1,5.938,5.938,0,0,0-2.354.444,4.777,4.777,0,0,0-1.748,1.253,5.549,5.549,0,0,0-1.081,1.94,8.02,8.02,0,0,0-.374,2.525,10.618,10.618,0,0,0,.374,2.819,7.222,7.222,0,0,0,1.162,2.424,5.8,5.8,0,0,0,2.01,1.7,6.2,6.2,0,0,0,2.9.636A6.426,6.426,0,0,0-98.6-7.333a3.349,3.349,0,0,0,1.233-.636,3.646,3.646,0,0,0,.858-1.081,13.073,13.073,0,0,0,.7-1.566,12.548,12.548,0,0,1-.162,1.546" transform="translate(108.942 21.466)" fill="#b6a27f"/>
      </g>
      <g id="Group_1125" data-name="Group 1125" transform="translate(-8133.831 -3465.536)">
        <path id="Path_9347" data-name="Path 9347" d="M-60.99-1.907c.013.108.023.212.03.313s.01.185.01.253q0,1.172-.889,1.172-.384,0-1.141-.021t-1.586-.05q-.828-.03-1.546-.061t-1-.03q-.323,0-.687.01t-.687.03l-.748.04a2.786,2.786,0,0,0,.778-.758,2.439,2.439,0,0,0,.293-1.344v-10.1q0-.445-.02-.768a2.6,2.6,0,0,0-.091-.566,1.371,1.371,0,0,0-.2-.425,1.568,1.568,0,0,0-.354-.343q.323.02.606.041.243.02.5.03t.414.01q.444,0,1.081-.02l1.263-.04q.626-.02,1.121-.04t.657-.02a.6.6,0,0,1,.485.222,1.639,1.639,0,0,1,.283.525,2.788,2.788,0,0,1,.131.616q.03.313.03.495a2.366,2.366,0,0,0-.344-.576,1.313,1.313,0,0,0-.434-.333,1.742,1.742,0,0,0-.606-.152q-.354-.03-.838-.03h-1.576v5.778H-63.7a1.453,1.453,0,0,0,.788-.192,1.667,1.667,0,0,0,.465-.414,1.83,1.83,0,0,0,.3-.606q-.041.283-.061.566-.02.243-.03.505c-.007.175-.01.337-.01.485q0,.141.02.374t.061.475q.041.283.081.606a1.821,1.821,0,0,0-.364-.525,2.187,2.187,0,0,0-.5-.364A1.562,1.562,0,0,0-63.7-7.3h-2.364V-.917h2.323A4.684,4.684,0,0,0-61.97-1.21a1.609,1.609,0,0,0,.96-1.061,3.3,3.3,0,0,0,.02.364" transform="translate(69.233 14.595)" fill="#b6a27f"/>
      </g>
      <g id="Group_1126" data-name="Group 1126" transform="translate(-8123.062 -3465.496)">
        <path id="Path_9348" data-name="Path 9348" d="M-101.5,13.965q-.162.02-.4.03t-.545.01a9.034,9.034,0,0,1-1.182-.071,4.09,4.09,0,0,1-.99-.253,3.744,3.744,0,0,1-.879-.505,5.407,5.407,0,0,1-.849-.828l-5.374-6.3,4.182-4.506A8.433,8.433,0,0,0-106.8.67a.911.911,0,0,0,.192-.4.635.635,0,0,0-.061-.242,1.676,1.676,0,0,0-.242-.364c.135.014.283.027.444.041s.316.023.505.03.4.01.626.01.488,0,.778-.01.556-.017.8-.03l.849-.041a6.586,6.586,0,0,0-1.869.7A6.733,6.733,0,0,0-106.349,1.6L-109.9,5.439l5.213,6.041a12.623,12.623,0,0,0,1.626,1.616,3.59,3.59,0,0,0,1.909.808,1.959,1.959,0,0,1-.343.061m-10.1-.04q-.283-.02-.667-.03t-.788-.01q-.788,0-1.334.02t-.828.061a2.429,2.429,0,0,0,.768-.737,2.48,2.48,0,0,0,.3-1.364V1.762q0-.445-.02-.758a2.932,2.932,0,0,0-.081-.545,1.226,1.226,0,0,0-.192-.414,2.176,2.176,0,0,0-.374-.384c.175.014.364.027.566.041q.263.02.566.03t.647.01q.324,0,.617-.01t.535-.03l.525-.041a1.785,1.785,0,0,0-.364.343,1.258,1.258,0,0,0-.212.424,2.609,2.609,0,0,0-.091.566q-.02.323-.02.768v10.1a2.479,2.479,0,0,0,.3,1.364,2.359,2.359,0,0,0,.788.737l-.647-.04" transform="translate(115.219 0.34)" fill="#b6a27f"/>
      </g>
      <g id="Group_1127" data-name="Group 1127" transform="translate(-8180.158 -3513.907) rotate(27.111)">
        <path id="Path_9349" data-name="Path 9349" d="M0,3.664H8.517L12.943,0,4.034,2.221Z" transform="translate(0 0)" fill="#b6a27f"/>
      </g>
      <g id="Group_1128" data-name="Group 1128" transform="translate(-8193.763 -3546.963) rotate(56.123)">
        <path id="Path_9350" data-name="Path 9350" d="M0,10.129H21.677L32.906,0,11.131,1.285Z" transform="translate(0 0)" fill="#b6a27f"/>
      </g>
      <g id="Group_1129" data-name="Group 1129" transform="translate(-8190.275 -3537.619)">
        <path id="Path_9351" data-name="Path 9351" d="M-248.012-278.946a1.861,1.861,0,0,1,.294-1h0l1.584-1.291h0c.386-.119.866-.228,1.42-.344Zm-4.143.185-3.667-2.923c.518.106.98.2,1.375.3l2.2,1.791a1.79,1.79,0,0,1,.095.83m33.287-14.9L-234.15-290l-6.875,5.481q-.645.106-1.307.186l7.07-5.762,13.909-18.785-19.217,13.724-5.7,11.008c-.1,0-.207-.005-.311-.01-3.577-.14-3-1.807-2.917-2.766a3.051,3.051,0,0,1,.048-.323,3.984,3.984,0,0,0,1.319-3.214c0-1.783-.845-3.247-1.943-3.489v-.03c-1.1.237-1.947,1.7-1.947,3.49a3.991,3.991,0,0,0,1.315,3.214,3.126,3.126,0,0,1,.047.324c.083.959.662,2.625-2.917,2.766-.19.007-.378.014-.567.017l-5.688-10.987-19.217-13.724,13.909,18.785,7.107,5.793q-.629-.057-1.242-.135L-266.249-290l-15.283-3.664,8.119,10.827,21.157,4.542c-.035.106-.078.218-.129.334l-5.6-1.121-7.328,1.911,7.694,1.446,5.009-1.744c-2.347,5.19-2.253,7.288-.259,11.758a15.672,15.672,0,0,1,1.385,7.04c0,4.627,1.068,14.919,1.321,16.5a139.411,139.411,0,0,0,1.5-16.206,16,16,0,0,1,1.384-7.306c1.98-4.45,2.082-6.548-.232-11.689l4.731,1.648,7.693-1.446-7.327-1.911L-247.8-278a3.138,3.138,0,0,1-.121-.338l20.934-4.494Z" transform="translate(281.533 308.877)" fill="#b6a27f"/>
      </g>
      <g id="Group_1130" data-name="Group 1130" transform="translate(-8136.059 -3510.645) rotate(152.889)">
        <path id="Path_9352" data-name="Path 9352" d="M0,0H8.517l4.426,3.664-8.91-2.22Z" transform="translate(0 0)" fill="#b6a27f"/>
      </g>
      <g id="Group_1131" data-name="Group 1131" transform="translate(-8115.715 -3541.317) rotate(123.877)">
        <path id="Path_9353" data-name="Path 9353" d="M0,0H21.677L32.906,10.129,11.131,8.844Z" transform="translate(0 0)" fill="#b6a27f"/>
      </g>
    </g>
  </g>
</svg>
