<svg xmlns="http://www.w3.org/2000/svg" xmlns:xlink="http://www.w3.org/1999/xlink" width="218.013" height="268.575" viewBox="0 0 218.013 268.575">
  <defs>
    <clipPath id="clip-path">
      <path id="Path_13325" data-name="Path 13325" d="M353.822,0H510.815A24.609,24.609,0,0,1,535.67,24.355V221.63a24.609,24.609,0,0,1-24.855,24.355H488.542l-17.4,17.319-4.971,1.353S442.7,265.74,419.5,256c-18.781,5.412-39.145,12.855-42.254,10.825-1.3-.849-24.58,11.907-17.952-20.837-90.38-5.881-5.474,0-5.474,0a24.609,24.609,0,0,1-24.855-24.355V24.355A24.609,24.609,0,0,1,353.822,0Z" transform="translate(0 0)" fill="#f2f3f6"/>
    </clipPath>
  </defs>
  <g id="Mask_Group_6" data-name="Mask Group 6" transform="translate(-317.656)" clip-path="url(#clip-path)">
    <g id="Group_1725" data-name="Group 1725" transform="translate(360.491 25.004)">
      <path id="Path_3498" data-name="Path 3498" d="M651.08,773.993s17.072,30.081,0,48.368C642.379,817.473,635.259,798.966,651.08,773.993Z" transform="translate(-602.183 -634.822)" fill="#b5b6b6"/>
      <path id="Path_3499" data-name="Path 3499" d="M530.986,782.235s13.21-12.029,13.886-14.777c1.1-4.5,3.758-9.54,15.188-11.012,4.626-.888,7.1-4.716,9.542-6.261,1.447-.917,5.789,1.288,2.894,5.156-2.894,2.836-7.631,6.444-7.631,6.444s11.168,1.673,27.328-8.173c3.5-2.13,2.392,6.083,7.138,5.853,5.893-.285-1.963,9.451-20.115,12.029,1.977,2.978,16.7-5.069,16.167-1.46-1.8,1.508-9.71,15.243-38.389,11.633-.524,1.548-22.327,24.026-22.327,24.026Z" transform="translate(-491.471 -622.137)" fill="#fcae88"/>
      <g id="Group_182" data-name="Group 182" transform="translate(0)">
        <path id="Path_3383" data-name="Path 3383" d="M1406.412,575.2c-33.989,0-42.145-27.644-31.207-68.822q1.657-6.227,3.886-12.857c5.988-17.814-6.416-45.19-15.579-47.939,4.91-8.26-5.29-23.378-5.29-23.378s79.242-50.478,69.019,61.186a103.977,103.977,0,0,0-.3,14.507C1429.529,550.365,1470.362,575.2,1406.412,575.2Z" transform="translate(-1273.105 -394.974)" fill="#6b2310"/>
        <path id="Path_3384" data-name="Path 3384" d="M1393.981,689.359c-33.989,0-42.145-27.644-31.207-68.821,18.8,7.549,36.868,1.468,51.732-8.481C1417.1,664.528,1457.93,689.359,1393.981,689.359Z" transform="translate(-1260.674 -509.137)" fill="#501a0c"/>
        <path id="Path_3385" data-name="Path 3385" d="M1466.506,427.513c2.009,5.347.636,10.767-3.069,12.1s-8.338-1.915-10.346-7.263-.636-10.768,3.069-12.1S1464.5,422.165,1466.506,427.513Z" transform="translate(-1339.862 -400.153)" fill="#be1e2d"/>
        <path id="Path_3386" data-name="Path 3386" d="M1589.08,1733.2s16.158-7.923,16.48-23.361h16.8s-.561,8.164-.26,9.917c.287,1.709,1.983,8.23,1.983,8.23S1595.143,1753.058,1589.08,1733.2Z" transform="translate(-1556.97 -1131.917)" fill="#fcae88"/>
        <path id="Path_3387" data-name="Path 3387" d="M1599.2,1753.217l3.435,4.712s17.036-8.455,30.929-11.444c3.983-.857,0,18.857,0,18.857h-10.311v-4.712l-13.746,4.712h-26.12S1581.085,1751.192,1599.2,1753.217Z" transform="translate(-1565.667 -1152.69)" fill="#414042"/>
        <path id="Path_3388" data-name="Path 3388" d="M1465.356,1746.32h20.1v9.882H1464.53Z" transform="translate(-1363.348 -1152.613)" fill="#b2151b"/>
        <path id="Path_3389" data-name="Path 3389" d="M1463.506,1734.235V1710.39h15.813s6.478,19.436,4.287,23.378C1481.2,1738.091,1463.506,1734.235,1463.506,1734.235Z" transform="translate(-1361.498 -1132.229)" fill="#fcae88"/>
        <path id="Path_3390" data-name="Path 3390" d="M1480.429,1746.32v7.831a21.034,21.034,0,0,0-20.1,0v-7.831s-7.476,16.416,0,18.943h20.1C1487.9,1762.736,1480.429,1746.32,1480.429,1746.32Z" transform="translate(-1358.32 -1152.613)" fill="#414042"/>
        <path id="Path_3391" data-name="Path 3391" d="M1556.372,1124.89l-9.715,255.639h-26.486l-20.008-224.3-3.969,224.3h-31.979L1440.97,1124.89Z" transform="translate(-1423.86 -800.071)" fill="#0072a5"/>
        <path id="Path_3392" data-name="Path 3392" d="M1440.96,1124.89l2.049,22.539,112.939-11.566.42-10.973Z" transform="translate(-1423.851 -800.071)" fill="#05628d"/>
        <path id="Path_3393" data-name="Path 3393" d="M1673.333,814.432,1661,841.093l21.187,7.293,10.748-25.278Z" transform="translate(-1657.584 -623.946)" fill="#bd8366"/>
        <path id="Path_3394" data-name="Path 3394" d="M1650.206,680.64l-26.684,59.682,22.008,8.323S1679.92,704.1,1650.206,680.64Z" transform="translate(-1610.399 -548.045)" fill="#0ca2e6"/>
        <path id="Path_3395" data-name="Path 3395" d="M1432.33,859.08h123.205c-.636-69.255-19.244-97.35-14.369-144.353,1.3-12.518,5.312-26.264,13.371-42.286,6.367-12.642-42.507-30.8-42.507-30.8h-23.139s-26.83,11.571-29.877,16.872c-2.045,3.556-7.758,17.363-15.084,43.138-2.336,8.215,2.172,21.559,3.8,25.491C1454.356,743.109,1436.141,820.6,1432.33,859.08Z" transform="translate(-1419.208 -525.923)" fill="#03a9f4"/>
        <path id="Path_3396" data-name="Path 3396" d="M1674.9,1003.388c2.777-28.039,13.2-76.8,16.09-107.369C1688.1,926.585,1677.678,975.349,1674.9,1003.388Z" transform="translate(-1661.778 -670.231)" fill="#e8e9e9"/>
        <path id="Path_3397" data-name="Path 3397" d="M1673.26,860.894q-.007-.925-.04-1.8v-.005q.033.873.04,1.8Z" transform="translate(-1643.305 -649.283)" fill="#c7ab9d"/>
        <path id="Path_3398" data-name="Path 3398" d="M1435.58,982.446h121.77c-58.461-13.811-87.91-74.831-99.254-105.551-2.429-.674-4.6-1.29-6.425-1.817C1448.783,905.646,1438.357,954.408,1435.58,982.446Zm17.288-121.5c-.318-1.139-.477-1.78-.495-1.845q.033.87.04,1.8Z" transform="translate(-1422.458 -649.289)" fill="#0ca2e6"/>
        <path id="Path_3399" data-name="Path 3399" d="M1460.931,849.94q-.192-1.076-.375-2.148Q1460.741,848.863,1460.931,849.94Zm-2.561-54.4q.445-3.33,1.152-6.783C1459.046,791.062,1458.666,793.322,1458.37,795.541Z" transform="translate(-1336.102 -609.381)" fill="#e8e9e9"/>
        <path id="Path_3400" data-name="Path 3400" d="M1474.364,849.057c-.128-.717-.251-1.433-.375-2.148-.826-4.813-1.55-9.566-2.111-14.356-1.042,2.02-2.1,3.955-3.17,5.731C1470.39,842.86,1472.276,846.665,1474.364,849.057Zm-2.76-52.792q.092-.8.2-1.607c.3-2.219.676-4.479,1.152-6.783-7.149-.514-14.585-.673-14.585-.673,0,.112.146,1.538.437,3.9Z" transform="translate(-1349.535 -608.499)" fill="#e1e2e3"/>
        <rect id="Rectangle_767" data-name="Rectangle 767" width="26.301" height="13.932" transform="translate(23.402 168.63)" fill="#fff"/>
        <rect id="Rectangle_768" data-name="Rectangle 768" width="7.401" height="6.216" transform="translate(40.478 172.487)" fill="#d1d3d4"/>
        <rect id="Rectangle_769" data-name="Rectangle 769" width="13.269" height="0.907" transform="translate(25.226 172.941)" fill="#d1d3d4"/>
        <rect id="Rectangle_770" data-name="Rectangle 770" width="13.269" height="0.906" transform="translate(25.226 175.142)" fill="#d1d3d4"/>
        <rect id="Rectangle_771" data-name="Rectangle 771" width="13.269" height="0.907" transform="translate(25.226 177.343)" fill="#d1d3d4"/>
        <path id="Path_3411" data-name="Path 3411" d="M1507.72,843.576s11.031-4.837,18.445,0c-3.117,9.579-3.546,14.879-3.546,14.879l-10.4-1Z" transform="translate(-1423.128 -639.26)" fill="#fcae88"/>
        <path id="Path_3412" data-name="Path 3412" d="M1705.215,853.13s-14.206-8.38-19.615-7.2c-2.349.6-9.661,14.4-7.056,17.108,4.305,4.477,24.741,4.18,24.741,4.18Z" transform="translate(-1677.365 -641.75)" fill="#fcae88"/>
        <path id="Path_3413" data-name="Path 3413" d="M1547.111,806.191s-13.406,38.716-23.346,45.535c-12.581,8.632-89.195-14.758-89.195-14.758l5.051-12.517,67.7,7.437,12.7-36.625Z" transform="translate(-1411.772 -613.071)" fill="#fcae88"/>
        <path id="Path_3414" data-name="Path 3414" d="M1678.11,894.794h0c-1.228-.354-2.305-.668-3.21-.934h0C1675.8,894.125,1676.882,894.44,1678.11,894.794Z" transform="translate(-1648.897 -669.006)" fill="#f9bbb6" fill-rule="evenodd"/>
        <path id="Path_3415" data-name="Path 3415" d="M1638.343,904.813c-6.469-1.614-12.479-3.227-17.4-4.6h0C1625.864,901.587,1631.874,903.2,1638.343,904.813Z" transform="translate(-1585.302 -672.612)" fill="#f3b5b1"/>
        <path id="Path_3416" data-name="Path 3416" d="M1674.9,896.018h0Z" transform="translate(-1645.687 -670.23)" fill="#f0b2ae"/>
        <path id="Path_3417" data-name="Path 3417" d="M1666.775,897.836h0c-2.429-.674-4.6-1.29-6.425-1.817h0C1662.178,896.546,1664.346,897.161,1666.775,897.836Z" transform="translate(-1631.137 -670.23)" fill="#edafab"/>
        <path id="Path_3418" data-name="Path 3418" d="M1692.721,882.147h0c-1.943-.57-3.083-.918-3.2-.953C1689.638,881.229,1690.778,881.576,1692.721,882.147Zm-3.2-.954h0Zm0,0h0Zm0,0,3.219-7.977-10.594,2.469Z" transform="translate(-1666.718 -657.293)" fill="#f89a87"/>
        <path id="Path_3419" data-name="Path 3419" d="M1572.6,886.846l31.078-15.5-50.768-5.578-13.826,3.222-3.219,7.977h.009c.114.035,1.254.383,3.2.953.906.266,1.983.58,3.211.934,1.828.527,4,1.142,6.425,1.817,4.924,1.369,10.934,2.981,17.4,4.6Q1569.29,886.062,1572.6,886.846Z" transform="translate(-1513.063 -653.068)" fill="#f89a87"/>
        <path id="Path_3420" data-name="Path 3420" d="M1446.215,818c.958-2.584,1.541-4.251,1.616-4.471-.075.22-.658,1.888-1.62,4.471Zm1.625-4.5-13.27-5.353h0Z" transform="translate(-1312.501 -620.381)" fill="#f9b6b2"/>
        <path id="Path_3421" data-name="Path 3421" d="M1464.62,806.342l3.842-11.081,1.024.413h0l-1.024-.412-3.842,11.08Zm17.664-5.5h0Z" transform="translate(-1360.214 -613.07)" fill="#f4b1ad"/>
        <path id="Path_3422" data-name="Path 3422" d="M1477.418,801.378h0l-12.8-5.164h0Z" transform="translate(-1355.349 -613.61)" fill="#eeaca8"/>
        <path id="Path_3423" data-name="Path 3423" d="M1434.57,820.546v0Zm0,0c0-.006,0-.01,0-.014S1434.574,820.535,1434.574,820.541Zm0-.014v0Zm0,0h0Z" transform="translate(-1299.24 -627.401)" fill="#f9b6b2"/>
        <path id="Path_3424" data-name="Path 3424" d="M1463.873,810.687c.963-2.583,1.545-4.251,1.62-4.471h0v0s0,0,0,0,0-.01,0-.014h0v0h0v0l-13.27-5.353-12.8-5.163-1.025-.412-3.842,11.08Z" transform="translate(-1330.164 -613.071)" fill="#f89987"/>
        <path id="Path_3425" data-name="Path 3425" d="M1539.477,863.367l83.415-16.972,4.941,13.66S1526.318,910.27,1539.477,863.367Z" transform="translate(-1538.3 -642.079)" fill="#fcae88"/>
        <path id="Path_3426" data-name="Path 3426" d="M1419.3,735.275l37.375,12.888c5.158-27.412,3.418-56.166-10.094-63.8C1435.554,678.138,1425.562,709.244,1419.3,735.275Z" transform="translate(-1317.266 -549.7)" fill="#03a9f4"/>
        <path id="Path_3427" data-name="Path 3427" d="M1531.4,591.592v52.076l22.9-29.555V591.592Z" transform="translate(-1461.716 -497.527)" fill="#fcae88"/>
        <path id="Path_3428" data-name="Path 3428" d="M1531.4,591.592v18.869l22.9-6.685V591.592Z" transform="translate(-1461.716 -497.527)" fill="#f58d86"/>
        <path id="Path_3429" data-name="Path 3429" d="M1550.566,418.321c0,24.367-20.158,44.122-45.028,44.122s-45.028-19.755-45.028-44.122,20.163-44.123,45.028-44.123S1550.566,393.953,1550.566,418.321Z" transform="translate(-1426.683 -374.198)" fill="#8e2e15"/>
        <path id="Path_3430" data-name="Path 3430" d="M1551.867,449.812a10.8,10.8,0,0,1-.318,2.388,9.061,9.061,0,0,1-4.747,6.291,4.942,4.942,0,0,1-2.345.412c-3.537,20.857-14.947,36.011-36.126,35.873a34.5,34.5,0,0,1-16.816-4.112c-13.984-7.775-19.946-25.777-19.8-46.682a68.087,68.087,0,0,1,.843-10.295c3.634-22.947,18.635-40.128,36.466-40.011,19.906.123,35.98,21.716,36.611,48.65a4.532,4.532,0,0,1,1.983.091,3.551,3.551,0,0,1,.654.239C1550.573,443.66,1551.965,446.53,1551.867,449.812Z" transform="translate(-1432.933 -385.248)" fill="#fcae88"/>
        <path id="Path_3433" data-name="Path 3433" d="M1498.181,595.421c6.535-3.674,11.375-9.612,14.669-17.053-3.3,7.441-8.138,13.379-14.669,17.053Z" transform="translate(-1405.6 -490.025)" fill="#f9bbb6"/>
        <path id="Path_3434" data-name="Path 3434" d="M1531.4,618.091c.19-.1.38-.206.566-.312h0C1531.78,617.885,1531.59,617.989,1531.4,618.091Z" transform="translate(-1439.385 -512.383)" fill="#f58d86"/>
        <path id="Path_3435" data-name="Path 3435" d="M1615.04,613.226c-.425-.291-.844-.593-1.25-.9A4.768,4.768,0,0,0,1615.04,613.226Z" transform="translate(-1558.841 -509.288)" fill="#f9bbb6"/>
        <path id="Path_3436" data-name="Path 3436" d="M1509.274,580.293a34.132,34.132,0,0,0,16.316-3.818c.19-.1.38-.206.565-.312,6.531-3.674,11.37-9.613,14.67-17.053a61.653,61.653,0,0,0,4.266-14.688c-8.942,28.032-24.229,34.638-36.665,34.638a42.9,42.9,0,0,1-19.906-5.264s0,0,0,.006c.406.312.826.614,1.249.9a10.165,10.165,0,0,1,2.385,1.477,34.511,34.511,0,0,0,16.82,4.108Z" transform="translate(-1433.575 -470.767)" fill="#f89a87"/>
        <path id="Path_3437" data-name="Path 3437" d="M1485.634,393.369s34.214,35.883,59.264,39.874C1546.209,428.327,1536.212,345.851,1485.634,393.369Z" transform="translate(-1432.217 -376.736)" fill="#8e2e15"/>
        <path id="Path_3438" data-name="Path 3438" d="M1632.485,413.3s-9.834,32.053-18.524,42.355C1614.062,452.225,1615.934,392.735,1632.485,413.3Z" transform="translate(-1576.362 -393.936)" fill="#8e2e15"/>
        <path id="Path_3461" data-name="Path 3461" d="M1538.243,491.172c0-.1,0-.2,0-.3h-.5C1537.9,490.97,1538.075,491.069,1538.243,491.172Z" transform="translate(-1448.463 -440.389)" fill="#bd8c7f"/>
      </g>
    </g>
  </g>
</svg>
