<svg xmlns="http://www.w3.org/2000/svg" width="24.545" height="24.545" viewBox="0 0 24.545 24.545">
  <g id="time" transform="translate(0.25 0.25)">
    <path id="Path_1925" data-name="Path 1925" d="M12.023,0A12.023,12.023,0,1,0,24.045,12.023,12.036,12.036,0,0,0,12.023,0Zm0,23.244A11.221,11.221,0,1,1,23.244,12.023,11.234,11.234,0,0,1,12.023,23.244Z" fill="#b8a584" stroke="#b6a27f" stroke-width="0.5"/>
    <path id="Path_1926" data-name="Path 1926" d="M19.813,6a.4.4,0,0,0-.4.4v9.217H13.4a.4.4,0,1,0,0,.8h6.412a.4.4,0,0,0,.4-.4V6.4A.4.4,0,0,0,19.813,6Z" transform="translate(-7.79 -3.595)" fill="#b8a584" stroke="#b6a27f" stroke-width="0.5"/>
  </g>
</svg>
