<svg xmlns="http://www.w3.org/2000/svg" width="24.217" height="24.248" viewBox="0 0 24.217 24.248">
  <g id="Page-1" transform="translate(0.284 0.268)">
    <g id="_037---Waypoint-Flag" data-name="037---Waypoint-Flag" transform="translate(0 0)">
      <path id="Shape" d="M23.338,11.837a17.732,17.732,0,0,1-4.089-2.809,54.317,54.317,0,0,0,1.4-7.239c.071-.569-.246-.752-.344-.8a.625.625,0,0,0-.75.249c-2.162,2.587-5.123,2.292-8.258,1.977-3.16-.316-6.42-.637-8.836,2.138A1.351,1.351,0,0,0,1.041,4.9l-.054.015A1.35,1.35,0,0,0,.051,6.577L4.874,23.836a1.155,1.155,0,0,0,1.426.8l.422-.118h0a1.157,1.157,0,0,0,.8-1.427L6.032,17.749c2.175-2.8,5.207-2.5,8.414-2.181s6.513.65,8.944-2.257v0a1.32,1.32,0,0,0,.27-1.06.581.581,0,0,0-.323-.414ZM6.731,23.587a.364.364,0,0,1-.221.174l-.422.118a.368.368,0,0,1-.453-.255L.812,6.365A.56.56,0,0,1,1.2,5.676l.054-.015A.552.552,0,0,1,1.4,5.64a.56.56,0,0,1,.538.408l.043.153h0l2.47,8.839,2.31,8.266A.366.366,0,0,1,6.731,23.587ZM22.782,12.806c-2.162,2.586-5.124,2.29-8.258,1.977s-6.344-.634-8.752,2.037L3.614,9.1,2.8,6.179c2.175-2.8,5.206-2.493,8.416-2.173,3.048.3,6.194.619,8.587-1.86a52.9,52.9,0,0,1-1.316,6.677.774.774,0,0,0,.23.784,18.859,18.859,0,0,0,4.178,2.9A.591.591,0,0,1,22.782,12.806Z" transform="translate(-0.001 -0.953)" fill="#b6a27f" stroke="#b6a27f" stroke-width="0.5"/>
    </g>
  </g>
</svg>
