<svg xmlns="http://www.w3.org/2000/svg" width="31.657" height="31.657" viewBox="0 0 31.657 31.657">
  <g id="Group_1108" data-name="Group 1108" transform="translate(-1789.344 -469)">
    <g id="instagram" transform="translate(1789.344 469)">
      <path id="Path_1882" data-name="Path 1882" d="M213.059,210.03a3.03,3.03,0,1,1-3.03-3.03A3.03,3.03,0,0,1,213.059,210.03Zm0,0" transform="translate(-194.201 -194.201)" fill="#b6a27f"/>
      <path id="Path_1883" data-name="Path 1883" d="M150.022,137.58a3.01,3.01,0,0,0-1.725-1.725,5.029,5.029,0,0,0-1.688-.313c-.959-.044-1.246-.053-3.673-.053s-2.715.009-3.673.053a5.032,5.032,0,0,0-1.688.313,3.011,3.011,0,0,0-1.725,1.725,5.031,5.031,0,0,0-.313,1.688c-.044.958-.053,1.246-.053,3.673s.009,2.714.053,3.673a5.029,5.029,0,0,0,.313,1.688,3.01,3.01,0,0,0,1.725,1.725,5.022,5.022,0,0,0,1.688.313c.958.044,1.246.053,3.673.053s2.715-.009,3.673-.053a5.022,5.022,0,0,0,1.688-.313,3.01,3.01,0,0,0,1.725-1.725,5.033,5.033,0,0,0,.313-1.688c.044-.959.053-1.246.053-3.673s-.009-2.714-.053-3.673A5.022,5.022,0,0,0,150.022,137.58Zm-7.085,10.028a4.667,4.667,0,1,1,4.667-4.667A4.667,4.667,0,0,1,142.936,147.607Zm4.852-8.428a1.091,1.091,0,1,1,1.091-1.091A1.091,1.091,0,0,1,147.788,139.179Zm0,0" transform="translate(-127.108 -127.111)" fill="#b6a27f"/>
      <path id="Path_1884" data-name="Path 1884" d="M15.829,0A15.829,15.829,0,1,0,31.657,15.829,15.83,15.83,0,0,0,15.829,0Zm9.034,19.576a6.668,6.668,0,0,1-.422,2.206,4.647,4.647,0,0,1-2.658,2.658,6.673,6.673,0,0,1-2.206.422c-.969.044-1.279.055-3.747.055s-2.778-.011-3.748-.055a6.673,6.673,0,0,1-2.206-.422,4.647,4.647,0,0,1-2.658-2.658,6.667,6.667,0,0,1-.422-2.206c-.045-.969-.055-1.279-.055-3.748s.01-2.778.055-3.747a6.669,6.669,0,0,1,.422-2.206A4.651,4.651,0,0,1,9.875,7.217a6.675,6.675,0,0,1,2.206-.422c.969-.044,1.279-.055,3.747-.055s2.778.011,3.747.055a6.676,6.676,0,0,1,2.206.422A4.649,4.649,0,0,1,24.44,9.875a6.668,6.668,0,0,1,.423,2.206c.044.969.055,1.279.055,3.747S24.907,18.607,24.863,19.576Zm0,0" fill="#b6a27f"/>
    </g>
  </g>
</svg>
