<svg xmlns="http://www.w3.org/2000/svg" width="19.691" height="19.691" viewBox="0 0 19.691 19.691">
  <g id="time" transform="translate(0.25 0.25)">
    <path id="Path_1932" data-name="Path 1932" d="M9.6,0a9.6,9.6,0,1,0,9.6,9.6A9.607,9.607,0,0,0,9.6,0Zm0,18.552A8.956,8.956,0,1,1,18.552,9.6,8.966,8.966,0,0,1,9.6,18.552Z" fill="#fff" stroke="#fff" stroke-width="0.5"/>
    <path id="Path_1933" data-name="Path 1933" d="M18.438,6a.32.32,0,0,0-.32.32v7.357h-4.8a.32.32,0,1,0,0,.64h5.118a.32.32,0,0,0,.32-.32V6.32A.32.32,0,0,0,18.438,6Z" transform="translate(-8.842 -4.081)" fill="#fff" stroke="#fff" stroke-width="0.5"/>
  </g>
</svg>
